<svg xmlns="http://www.w3.org/2000/svg" viewBox="0 0 800 800">
  <path d="M720 455c40 33 33 81 9 103 11 103-58 99-69 59-34 45-58 29-62 26a343 343 0 0 1-384 0c-25 17-52 7-67-17-54 57-80-8-64-48-39-19-37-66 10-123-2-12-3-24-3-37 0-108 75-228 169-250-62-40 3-88 68-40 23-54 79-54 80-7 86-1 133 30 176 53 23 12 51 25 84 27 40 1 60 44 18 77 25 42 35 85 35 177Zm0 0" style="stroke:none;fill-rule:nonzero;fill:#9e9e9e;fill-opacity:1"/>
  <path d="M615 258c28 0 46 9 93-16-1 12-8 25-23 36l5 9c-37-3-63-17-75-29Zm31 239c10 37 46 62 83 61 11 103-58 99-69 59-34 45-58 29-62 26a343 343 0 0 1-384 0c-25 17-52 7-67-17-54 57-80-8-64-48-39-19-37-66 10-123-2-12-3-24-3-37 0-108 75-228 169-250-24-16-29-33-21-45 9 25 42 47 81 50-95 30-66 68-14 96 70 111 337 158 341 228Zm0 0" style="stroke:none;fill-rule:nonzero;fill:gray;fill-opacity:1"/>
  <path d="M288 265c-17 0-35 3-56 10-47 17-71 57-82 100 31-21 55-35 105-37 81-5 109 54 110 80 0 27-11 43-32 54-23 13-73 16-87 15-35 0-56-6-97-15 22 114 130 184 258 184s236-70 259-184c-42 9-63 15-98 15-14 1-63-2-87-15a55 55 0 0 1-32-54c1-26 29-85 110-80 50 2 75 16 105 37-10-43-35-83-82-100-81-29-136 15-175 16-29-1-67-26-119-26Zm376 110Zm5 32v1-1Zm0 1Zm0 5Zm0 0 1 11v1-1l-1-11Zm1 12Zm0 4Zm0 2Zm0 4v2-2Zm0 2Zm-1 4v2-2Zm0 2Zm0 5Zm0 1Zm-1 5Zm0 1Zm0 5-1 2 1-2Zm-1 2Zm0 4Zm-1 1Zm0 5Zm-517 0Zm1-97v1-1Zm0 0" style="stroke:none;fill-rule:nonzero;fill:#e8e8e8;fill-opacity:1"/>
  <path d="M287 265c-16 0-35 3-55 10-47 17-71 57-82 100 14-9 26-17 40-23 13-38 47-69 109-86l-12-1Zm-66 221c-22-2-42-7-72-14 22 114 130 184 258 184 111 0 208-53 246-142-177 138-356 72-432-28Zm-72-14Zm0 0Zm-1-5v-1 1Zm0-1Zm-1-5v-1 1Zm0-1Zm-1-5Zm0-1Zm-1-5v-1 1Zm0-1Zm0-5v-1 1Zm0-1Zm0-5v-1 1Zm0-1Zm-1-6Zm0 0Zm0-6Zm1-6v-2 2Zm0-2Zm0-4v-2 2Zm0-2v-4 4Zm0-4Zm1-4v-1 1Zm0-1Zm1-5v-1 1Zm0-1Zm0-5Zm0 0Zm3-15v1-1Zm0 1Zm0 2v1-1Zm0 1h-1 1Zm-1 0Zm-1 5Zm0 0" style="stroke:none;fill-rule:nonzero;fill:#d1d1d1;fill-opacity:1"/>
  <path d="M365 418c-1-26-29-85-110-80-50 2-74 16-105 37a226 226 0 0 0-1 97c41 9 62 15 97 15 14 1 64-2 87-15 21-11 32-27 32-54Zm84 0c1-26 29-85 110-80 50 2 75 16 105 37a225 225 0 0 1 2 97c-42 9-63 15-98 15-14 1-63-2-87-15a55 55 0 0 1-32-54Zm0 0" style="stroke:none;fill-rule:nonzero;fill:#858585;fill-opacity:1"/>
  <path d="M190 352c-14 6-26 14-40 24a226 226 0 0 0-1 96c30 7 50 12 72 14-29-37-43-87-31-134Zm0 0" style="stroke:none;fill-rule:nonzero;fill:#6b6b6b;fill-opacity:1"/>
  <path d="M334 425c0 19-18 23-25 7-4-11-13-17-25-16-10 0-19 9-21 15-5 16-26 13-27-3 0-22 21-44 49-46 27-1 50 24 49 43Zm98 51c2-2 3-5 3-7 1-3 0-5-1-7-2-2-3-3-5-3l-5-2-17-1a100 100 0 0 0-22 3c-2 0-3 1-4 3-2 2-2 4-2 7 0 2 1 5 3 7 3 3 7 5 12 7l13 1 14-1 11-7m-2 56c9 0 19-1 27-7l4-4c1-2 2-4 1-6 0-2-2-4-3-5h-7l-4 1c-5 2-11 4-17 3-6 0-12-2-16-5l-8-7-7 7c-5 3-11 5-17 5-6 1-12-1-17-3l-4-1h-6c-2 1-4 3-4 5-1 2 0 4 1 6l5 4c7 6 17 7 26 7 9-1 17-4 23-9 7 5 15 8 23 9m50-107c0 19 18 23 25 6 5-10 14-16 25-15 10 0 19 9 21 15 5 16 26 13 27-3 1-22-21-44-48-46-28-1-50 24-50 43Zm0 0" style="stroke:none;fill-rule:nonzero;fill:#383838;fill-opacity:1"/>
</svg>
